 <svg version="1.0" xmlns="http://www.w3.org/2000/svg" width="14.000000pt" height="16.000000pt" viewBox="0 0 700.000000 700.000000" preserveAspectRatio="xMidYMid meet">
<metadata>
Created by potrace 1.12, written by Peter Selinger 2001-2015
</metadata>
<g transform="translate(0.000000,700.000000) scale(0.100000,-0.100000)" fill="#fff" stroke="none">
<path d="M3279 6077 c-72 -55 -39 -167 48 -167 86 1 124 91 64 151 -32 31 -82
39 -112 16z"></path>
<path d="M3269 5671 l-24 -19 -3 -583 c-3 -694 3 -834 42 -913 43 -88 112
-128 316 -182 58 -15 107 -29 110 -32 12 -10 -64 -53 -349 -197 -468 -236
-511 -265 -511 -345 0 -53 36 -93 106 -120 31 -11 167 -41 302 -66 136 -25
249 -47 251 -50 6 -5 12 0 -114 -89 -166 -117 -193 -141 -204 -181 -14 -49 10
-109 52 -130 16 -9 75 -24 131 -34 132 -24 154 -33 162 -66 8 -33 -1 -467 -21
-979 -8 -203 -15 -396 -15 -429 0 -48 -3 -57 -15 -52 -9 3 -84 59 -168 124
-210 164 -230 173 -286 126 -48 -40 -44 -85 12 -138 60 -57 396 -330 458 -372
65 -44 110 -45 165 -6 43 31 420 419 460 473 52 70 17 159 -62 159 -53 0 -84
-24 -224 -174 -69 -73 -127 -130 -130 -125 -3 4 3 234 12 511 20 598 22 938 7
992 -14 52 -44 79 -115 105 -32 12 -68 25 -78 29 -16 7 8 25 125 97 79 49 163
107 187 130 36 36 42 48 42 83 0 49 -35 96 -83 111 -18 5 -99 19 -182 31 -207
29 -388 61 -398 69 -13 12 6 24 280 164 281 145 361 194 435 265 57 55 74 98
58 146 -23 69 -63 90 -291 151 -212 57 -235 67 -248 108 -9 30 -23 427 -37
1047 -3 151 -10 292 -15 312 -5 21 -19 44 -32 53 -30 21 -80 19 -108 -4z"></path>
</g>
</svg>