 <svg version="1.0" xmlns="http://www.w3.org/2000/svg" width="60.000000pt" height="100.000000pt" viewBox="0 0 700.000000 1108.000000" preserveAspectRatio="xMidYMid meet">
<metadata>
Created by potrace 1.12, written by Peter Selinger 2001-2015
</metadata>
<g transform="translate(0.000000,1108.000000) scale(0.100000,-0.100000)" fill="#fff" stroke="none">
<path d="M1955 10731 c-6 -5 -136 -12 -290 -16 -154 -4 -283 -9 -286 -11 -12
-7 -296 -18 -642 -25 -32 0 -63 4 -70 9 -16 13 -139 15 -185 3 -20 -6 -50 -13
-65 -16 -15 -3 -32 -15 -37 -28 -6 -12 -19 -36 -29 -53 -11 -18 -20 -42 -21
-55 -5 -58 1 -109 15 -122 7 -8 17 -26 21 -41 3 -15 14 -31 24 -36 9 -5 23
-23 30 -39 10 -24 76 -81 94 -81 3 0 17 -5 33 -12 33 -14 65 -19 116 -20 20 0
37 -4 37 -9 0 -5 5 -9 10 -9 6 0 10 7 10 15 0 8 10 16 23 16 48 3 93 8 125 12
18 2 35 0 38 -4 3 -5 12 -5 22 0 15 8 127 20 257 27 28 2 82 6 120 10 39 3 77
6 85 6 8 0 42 4 75 9 33 5 116 12 185 15 69 3 161 7 205 9 204 10 671 20 780
16 11 0 58 1 105 2 47 1 106 -2 131 -8 26 -7 58 -8 75 -3 16 4 36 5 44 2 21
-9 93 -4 104 6 5 5 17 5 28 -1 11 -6 22 -8 25 -5 3 3 17 -1 32 -8 14 -8 70
-16 124 -20 54 -3 104 -9 110 -13 6 -4 36 -8 67 -9 30 -1 78 -7 105 -12 28 -6
66 -10 87 -10 20 0 51 -5 70 -10 66 -21 116 -32 142 -32 17 0 26 -5 26 -16 0
-13 3 -14 14 -5 10 8 31 5 87 -13 41 -13 101 -31 134 -40 137 -36 168 -46 180
-56 6 -5 38 -18 71 -29 72 -24 124 -49 124 -62 0 -5 13 -9 29 -9 17 0 33 -4
36 -10 3 -5 14 -10 23 -10 20 0 165 -71 190 -93 10 -8 46 -29 82 -47 36 -18
76 -40 90 -50 14 -10 51 -29 84 -44 56 -26 127 -73 134 -88 2 -5 10 -8 17 -8
7 0 15 -4 17 -9 2 -5 42 -35 90 -68 129 -86 208 -154 353 -299 163 -164 244
-258 263 -306 8 -21 21 -38 29 -38 7 0 16 -8 20 -17 10 -27 65 -107 80 -116 7
-4 13 -13 13 -18 0 -6 25 -64 55 -129 30 -65 55 -128 55 -139 0 -10 6 -32 14
-48 26 -51 46 -101 46 -116 0 -8 6 -33 14 -55 15 -42 21 -88 33 -232 11 -154
8 -242 -10 -279 -11 -21 -14 -38 -8 -45 6 -7 6 -29 0 -56 -5 -25 -13 -67 -18
-95 -18 -98 -63 -251 -91 -310 -16 -33 -41 -89 -55 -125 -38 -91 -143 -291
-168 -317 -11 -13 -17 -23 -13 -23 4 0 -2 -12 -13 -26 -12 -15 -21 -30 -21
-34 0 -12 -129 -203 -157 -232 -14 -15 -31 -35 -37 -46 -27 -46 -65 -98 -85
-116 -11 -11 -21 -23 -21 -28 0 -9 -36 -62 -57 -86 -7 -7 -13 -19 -13 -26 0
-6 -18 -30 -41 -51 -22 -22 -46 -53 -53 -70 -8 -16 -48 -73 -91 -125 -42 -52
-91 -115 -108 -140 -16 -25 -38 -54 -48 -65 -70 -77 -176 -200 -184 -215 -15
-28 -126 -159 -163 -194 -19 -17 -50 -55 -69 -83 -19 -29 -47 -63 -61 -76 -15
-13 -34 -36 -42 -53 -9 -16 -26 -33 -38 -39 -12 -5 -22 -13 -22 -18 0 -4 -26
-42 -57 -85 -57 -76 -68 -89 -168 -203 -27 -31 -72 -85 -100 -119 -27 -34 -62
-77 -77 -94 -15 -18 -47 -58 -70 -89 -24 -31 -88 -105 -143 -165 -55 -60 -142
-158 -192 -219 -51 -60 -105 -123 -120 -139 -15 -16 -48 -56 -73 -89 -26 -33
-66 -80 -89 -105 -61 -64 -73 -77 -129 -148 -57 -72 -168 -189 -229 -244 -23
-20 -48 -48 -55 -62 -15 -29 -300 -319 -438 -446 -50 -47 -127 -119 -170 -161
-55 -54 -86 -78 -109 -81 -36 -5 -39 6 -17 74 17 53 28 95 32 128 6 49 43 200
54 219 5 11 10 31 10 45 0 14 4 28 10 31 6 3 10 28 10 54 0 26 7 61 15 77 8
16 16 51 19 77 2 26 8 53 14 60 8 11 21 60 28 112 2 21 14 88 40 240 9 50 20
99 24 110 9 20 18 69 26 134 3 19 7 38 11 44 3 5 8 30 10 54 2 24 10 61 19 81
26 62 27 150 3 202 -12 25 -26 54 -31 65 -5 11 -23 30 -41 43 -18 12 -52 39
-76 60 -43 38 -163 88 -182 76 -5 -3 -19 2 -31 10 -29 20 -97 20 -147 0 -60
-24 -73 -61 -65 -181 5 -87 3 -115 -25 -248 -17 -82 -44 -193 -61 -245 -34
-113 -54 -188 -86 -330 -12 -58 -32 -148 -44 -200 -12 -52 -23 -117 -26 -145
-3 -27 -11 -73 -18 -102 -8 -28 -12 -54 -9 -56 2 -3 0 -22 -6 -43 -10 -40 -23
-139 -24 -186 0 -14 12 -49 26 -77 20 -37 25 -56 18 -73 -4 -13 -12 -50 -16
-83 -4 -33 -10 -64 -13 -70 -7 -10 -28 -105 -36 -160 -11 -76 -17 -100 -26
-109 -6 -6 -10 -27 -10 -47 0 -43 -15 -123 -35 -189 -8 -25 -17 -67 -20 -94
-3 -28 -15 -87 -25 -133 -11 -46 -23 -108 -26 -140 -7 -55 -30 -93 -56 -93
-14 0 -15 -3 -20 -134 -4 -78 -7 -91 -27 -108 -22 -17 -23 -23 -17 -84 4 -37
13 -73 21 -81 8 -8 15 -20 15 -27 0 -15 42 -56 57 -56 5 0 18 -9 28 -20 10
-11 28 -20 41 -20 13 0 25 -4 29 -9 3 -6 13 -10 23 -10 18 0 87 -15 137 -29
17 -5 49 -7 73 -4 41 4 46 8 138 128 52 68 100 124 107 124 6 0 21 9 33 21 18
17 38 22 91 24 37 1 79 7 93 13 14 5 32 6 41 1 9 -4 33 -2 59 7 23 8 45 13 47
10 3 -3 12 1 20 9 8 8 30 15 48 15 19 0 56 7 82 15 85 27 107 33 163 45 30 7
65 16 78 21 13 5 33 7 46 3 12 -3 44 2 71 12 27 9 72 20 100 25 135 23 191 35
203 42 6 5 12 5 12 1 0 -4 9 1 20 11 17 15 35 18 101 17 53 -1 92 3 112 13 34
15 70 24 127 30 19 1 71 8 115 15 44 6 105 13 135 15 30 2 67 6 82 9 83 13
109 16 175 21 40 2 84 0 99 -5 14 -6 31 -7 37 -3 21 14 223 17 387 7 145 -9
199 -9 258 -3 40 4 43 7 72 64 16 33 30 74 30 92 0 44 -31 100 -82 149 -75 72
-100 81 -223 82 -61 1 -135 4 -165 8 -127 14 -398 10 -710 -12 -36 -2 -99 -6
-140 -7 -41 -2 -100 -9 -130 -16 -30 -7 -84 -17 -120 -21 -36 -4 -83 -13 -105
-18 -97 -24 -167 -33 -179 -23 -10 8 -19 6 -35 -8 -14 -13 -56 -25 -119 -36
-53 -8 -110 -20 -127 -25 -16 -5 -74 -14 -128 -20 -55 -5 -107 -15 -118 -21
-11 -5 -47 -12 -82 -15 -34 -3 -80 -12 -102 -20 -22 -8 -51 -13 -65 -11 -14 2
-32 0 -40 -4 -31 -17 -191 -60 -229 -62 -46 -1 -59 7 -43 26 7 8 9 17 4 21
-11 12 -12 109 -1 123 6 6 9 17 8 25 -5 23 12 122 23 135 6 7 7 20 4 29 -4 10
4 30 19 50 29 38 31 46 9 37 -14 -5 -16 -2 -9 23 5 16 9 38 10 49 1 11 10 48
21 83 13 44 23 61 32 57 8 -3 17 -5 20 -5 4 0 30 -29 57 -65 28 -35 56 -64 63
-65 7 0 23 -7 37 -16 21 -13 29 -14 72 -1 60 18 118 50 163 91 31 27 79 53
133 70 9 3 17 14 17 24 0 17 28 52 42 52 3 0 23 16 44 35 21 19 42 35 48 35
10 0 87 72 149 140 39 42 198 201 218 216 8 6 23 24 34 40 11 15 32 39 48 53
15 13 27 30 27 37 0 6 11 19 25 28 14 9 25 22 25 30 0 7 17 25 38 40 22 15 45
37 52 50 7 13 23 30 36 37 14 7 34 28 45 46 11 18 25 33 30 33 5 0 9 6 9 13 0
15 97 138 153 194 45 44 97 107 97 117 0 3 15 20 33 38 17 18 48 53 67 78 36
47 133 160 185 214 52 56 115 134 115 144 0 9 36 50 128 147 11 11 22 30 26
41 4 12 26 39 49 61 46 44 116 125 132 153 9 16 37 51 120 149 17 20 50 62 74
93 24 32 61 73 82 93 21 19 39 41 39 48 0 16 72 87 88 87 7 0 12 10 12 23 0
13 13 36 29 51 16 15 46 52 66 82 21 30 66 83 101 119 35 36 64 70 64 76 0 6
14 27 30 46 17 18 30 39 30 45 0 34 96 118 114 100 4 -3 4 1 1 9 -4 10 11 36
40 71 25 30 45 58 45 61 0 7 96 138 125 170 8 9 15 19 15 23 0 12 111 172 122
177 7 2 26 29 42 60 15 30 48 77 72 105 24 28 44 53 44 56 0 4 18 35 40 70 22
35 40 70 40 79 0 8 16 30 35 48 19 19 35 39 35 47 0 21 38 89 65 116 14 14 25
35 25 47 0 12 17 58 39 103 21 44 48 104 60 131 13 28 28 61 35 75 7 14 18 45
25 70 7 25 20 59 28 75 16 31 32 87 38 139 2 16 8 32 14 35 5 4 9 19 7 35 -3
27 44 135 74 171 8 9 9 20 3 28 -5 6 -8 32 -8 57 0 37 3 44 18 42 19 -3 24 14
6 20 -8 3 -12 58 -11 183 0 99 -4 195 -10 213 -5 18 -11 56 -13 85 -3 45 -21
148 -41 227 -3 14 -10 41 -14 60 -15 59 -57 172 -83 225 -14 28 -35 73 -47
100 -51 115 -115 236 -147 282 -13 17 -23 34 -23 37 0 9 -102 158 -122 178 -9
9 -24 30 -32 46 -8 16 -22 32 -31 35 -8 4 -15 12 -15 20 0 17 -300 317 -371
372 -29 22 -65 52 -81 67 -16 15 -42 37 -59 49 -17 12 -41 31 -53 41 -33 31
-168 126 -201 143 -16 9 -68 40 -115 70 -47 30 -117 72 -156 95 -40 22 -77 47
-84 55 -7 8 -19 15 -27 15 -7 0 -16 7 -19 15 -4 8 -14 15 -24 15 -26 0 -135
48 -222 98 -20 12 -72 33 -115 48 -43 14 -82 30 -87 35 -6 5 -16 9 -24 9 -8 0
-33 9 -56 19 -42 20 -156 56 -213 67 -18 4 -38 12 -44 20 -7 8 -21 11 -40 7
-18 -3 -29 -1 -29 6 0 6 -13 11 -29 11 -16 0 -44 6 -62 14 -34 14 -152 32
-177 27 -7 -1 -30 4 -50 10 -20 7 -40 14 -44 15 -5 1 -11 3 -15 4 -5 1 -35 3
-68 4 -53 2 -166 15 -265 32 -19 3 -57 7 -85 9 -220 13 -279 16 -345 22 -41 3
-90 7 -108 8 -18 1 -35 4 -38 7 -3 4 -31 4 -63 1 -39 -4 -61 -2 -66 6 -5 9
-10 9 -21 0 -11 -9 -30 -9 -82 0 -41 7 -79 8 -97 3 -16 -5 -68 -5 -115 -2 -47
4 -140 6 -208 5 -68 -1 -125 2 -128 7 -7 11 -28 10 -39 -1z"></path>
<path d="M4110 1610 c0 -5 5 -10 11 -10 5 0 7 5 4 10 -3 6 -8 10 -11 10 -2 0
-4 -4 -4 -10z"></path>
</g>
</svg>